<svg width="23" height="23" viewBox="0 0 23 23" fill="none" xmlns="http://www.w3.org/2000/svg">
<g clip-path="url(#clip0_22_230)">
<path d="M9.68345 5.52732C10.3776 5.05902 10.9355 4.63972 11.5332 4.28851C12.5523 3.68933 13.6207 3.56077 14.7582 4.00683C16.8182 4.8288 17.9329 6.3431 18.2134 8.51608C18.3675 9.71316 17.8665 10.7219 17.2151 11.649C16.5337 12.6259 15.763 13.538 15.0527 14.4983C14.0721 15.8134 13.3948 17.2556 13.2176 18.9141C13.1822 19.2401 12.9796 19.5485 12.879 19.8004C12.4183 19.9693 12.104 19.9558 11.8559 19.6105C11.711 19.415 11.5315 19.2443 11.3792 19.0535C10.7132 18.2255 9.88798 17.5844 9.01582 16.9912C7.71201 16.1068 6.36315 15.2896 5.13336 14.3009C4.1116 13.4852 3.28408 12.4517 2.71095 11.2755C2.06545 9.94159 1.96245 8.52288 2.55167 7.09057C3.22667 5.44524 5.55791 3.76903 7.9489 4.47082C8.43782 4.61416 8.8706 4.95587 9.31871 5.2209C9.44969 5.31125 9.57181 5.41386 9.68345 5.52732ZM11.8642 17.5229C11.9309 17.44 11.986 17.3484 12.0281 17.2507C12.4861 15.5576 13.3857 14.1151 14.4913 12.7735C15.1579 11.9644 15.7855 11.1191 16.3695 10.245C17.2837 8.89527 17.0365 7.67279 16.1283 6.4499C15.8417 6.09577 15.5032 5.78714 15.1243 5.53449C14.3933 5.00825 13.587 4.91053 12.7287 5.2094C11.8486 5.51666 11.0949 5.9835 10.5265 6.74852C10.2088 7.17429 9.74061 7.18545 9.3436 6.83979C9.23813 6.74741 9.14322 6.64361 9.06058 6.53029C8.54665 5.83288 7.81931 5.66887 7.01382 5.69297C6.30874 5.71471 5.62369 5.93302 5.03566 6.32336C4.74087 6.50954 4.49112 6.75911 4.30453 7.05395C3.6311 8.20177 3.46481 9.42568 3.95795 10.6856C4.38882 11.8077 5.13651 12.7798 6.10972 13.4832C6.79146 13.9832 7.48158 14.4539 8.18298 14.9169C9.35309 15.688 10.5473 16.4201 11.5772 17.3844C11.666 17.4436 11.7626 17.4902 11.8642 17.5229Z" fill="#FF0F82"/>
<path d="M11.8642 17.5229C11.7635 17.4892 11.6678 17.4417 11.58 17.3817C10.5502 16.4175 9.35592 15.6854 8.18581 14.9143C7.48156 14.4539 6.7923 13.9761 6.1097 13.4832C5.13619 12.7811 4.38771 11.8103 3.95558 10.6893C3.46394 9.43278 3.62873 8.20551 4.30216 7.05769C4.48875 6.76285 4.7385 6.51328 5.03329 6.3271C5.6216 5.93502 6.30755 5.71539 7.0138 5.69297C7.81929 5.66887 8.54998 5.83138 9.06056 6.53029C9.1432 6.64361 9.23812 6.74741 9.34358 6.83979C9.74059 7.18545 10.2087 7.17429 10.5265 6.74852C11.0948 5.9835 11.852 5.51516 12.7287 5.2094C13.587 4.91053 14.3933 5.00825 15.1243 5.53449C15.5031 5.78714 15.8417 6.09577 16.1283 6.4499C17.0365 7.67279 17.2802 8.88744 16.3695 10.245C15.784 11.1158 15.1579 11.9644 14.4913 12.7735C13.3857 14.1151 12.4841 15.5531 12.0281 17.2507C11.986 17.3484 11.9309 17.44 11.8642 17.5229Z" fill="#FF0F82"/>
</g>
<defs>
<clipPath id="clip0_22_230">
<rect width="16.9748" height="16.9949" fill="white" transform="matrix(0.912494 -0.409089 0.407875 0.913038 0 6.94419)"/>
</clipPath>
</defs>
</svg>
